HIERARCHY
ROOT Hips
{
  OFFSET -331.093 83.8371 -317.828
  CHANNELS 6 Xposition Yposition Zposition Zrotation Xrotation Yrotation
  JOINT LeftUpLeg
  {
    OFFSET 8.64259 1.95398 -2.38835
    CHANNELS 3 Zrotation Xrotation Yrotation
    JOINT LeftLeg
    {
      OFFSET 43.7702 0 0
      CHANNELS 3 Zrotation Xrotation Yrotation
      JOINT LeftFoot
      {
        OFFSET 40.6238 0 0
        CHANNELS 3 Zrotation Xrotation Yrotation
        JOINT LeftToeBase
        {
          OFFSET 12.7242 0 0
          CHANNELS 3 Zrotation Xrotation Yrotation
          End Site
          {
            OFFSET 0 0 0
          }
        }
      }
    }
  }
  JOINT RightUpLeg
  {
    OFFSET -8.2249 1.95398 -2.59336
    CHANNELS 3 Zrotation Xrotation Yrotation
    JOINT RightLeg
    {
      OFFSET 43.5653 0 0
      CHANNELS 3 Zrotation Xrotation Yrotation
      JOINT RightFoot
      {
        OFFSET 40.6238 0 0
        CHANNELS 3 Zrotation Xrotation Yrotation
        JOINT RightToeBase
        {
          OFFSET 12.7242 0 0
          CHANNELS 3 Zrotation Xrotation Yrotation
          End Site
          {
            OFFSET 0 0 0
          }
        }
      }
    }
  }
  JOINT Spine
  {
    OFFSET 0.165834 0.87714 6.61349
    CHANNELS 3 Zrotation Xrotation Yrotation
    JOINT Spine1
    {
      OFFSET 7.38963 1.71661e-005 0
      CHANNELS 3 Zrotation Xrotation Yrotation
      JOINT Spine2
      {
        OFFSET 11.9445 1.14441e-005 0
        CHANNELS 3 Zrotation Xrotation Yrotation
        JOINT Spine3
        {
          OFFSET 14.7254 4.19617e-005 0
          CHANNELS 3 Zrotation Xrotation Yrotation
          JOINT Spine4
          {
            OFFSET 10.9679 0 0
            CHANNELS 3 Zrotation Xrotation Yrotation
            JOINT RightShoulder
            {
              OFFSET 2.46616 -1.6653 3.69651
              CHANNELS 3 Zrotation Xrotation Yrotation
              JOINT RightArm
              {
                OFFSET 13.0012 0 0
                CHANNELS 3 Zrotation Xrotation Yrotation
                JOINT RightForeArm
                {
                  OFFSET 28.7848 1.62311e-005 0
                  CHANNELS 3 Zrotation Xrotation Yrotation
                  JOINT RightHand
                  {
                    OFFSET 26.5688 1.62095e-005 0
                    CHANNELS 3 Zrotation Xrotation Yrotation
                    End Site
                    {
                      OFFSET 0 0 0
                    }
                  }
                }
              }
            }
            JOINT LeftShoulder
            {
              OFFSET 2.38034 -1.29275 -3.7523
              CHANNELS 3 Zrotation Xrotation Yrotation
              JOINT LeftArm
              {
                OFFSET 16.3182 6.07031e-005 0
                CHANNELS 3 Zrotation Xrotation Yrotation
                JOINT LeftForeArm
                {
                  OFFSET 27.0901 0 0
                  CHANNELS 3 Zrotation Xrotation Yrotation
                  JOINT LeftHand
                  {
                    OFFSET 24.5451 1.51738e-005 0
                    CHANNELS 3 Zrotation Xrotation Yrotation
                    End Site
                    {
                      OFFSET 0 0 0
                    }
                  }
                }
              }
            }
            JOINT Neck
            {
              OFFSET 5.0226 -0.0266342 0
              CHANNELS 3 Zrotation Xrotation Yrotation
              JOINT Head
              {
                OFFSET 6.69364 2.86102e-005 0
                CHANNELS 3 Zrotation Xrotation Yrotation
                End Site
                {
                  OFFSET 0 0 0
                }
              }
            }
          }
        }
      }
    }
  }
}
MOTION
Frames:	7
Frame Time:	0.0416667
-130.569 97.2347 -155.213 -90.5929 48.2297 -90.978 -176.318 15.5011 85.4444 -24.6046 7.63609 -2.14725 63.9307 2.35972 3.29085 28.7581 -0.264328 -1.15129 173.663 8.39136 85.9674 -54.0151 -6.22282 -4.77812 58.958 0.374076 0.0703417 42.0423 -2.58399 -9.84879 0.414632 7.38826 -89.6238 12.0944 1.00216 0.640323 0.423678 1.02937 0.59558 -22.1122 0.763372 0.91191 -2.09955 0.763369 0.911893 91.2601 -39.4071 -101.012 30.2389 -14.4098 3.55263 -14.589 -11.0964 -53.0744 -10.6852 -0.601643 0.703197 -95.5534 -47.8996 70.3499 -24.7261 10.1333 13.3337 6.3545 18.3944 -33.049 9.0316 0.646482 3.0012 5.09789 2.26989 -0.435169 -6.88886 2.19701 2.75603 
-122.805 95.2617 -148.868 -88.6663 48.9228 -93.3584 -176.474 25.0354 85.3506 -27.6952 7.09294 -2.3888 61.4095 1.06755 3.21513 26.8538 -1.72849 -1.6241 173.935 -0.114784 85.9922 -48.1783 -14.4671 -6.80939 58.5885 1.1615 0.581408 48.7905 -3.41956 -10.3141 0.805049 7.22645 -89.4949 12.4138 1.83988 0.799936 0.743977 1.87331 0.718157 -21.7966 1.51442 1.31597 -1.78392 1.51442 1.31597 91.6075 -38.2132 -100.726 27.6751 -14.2729 -1.83857 -14.8729 -10.7995 -54.7643 -10.3537 -0.552356 0.251088 -95.383 -48.502 70.7922 -25.4926 5.60416 17.4982 6.44491 19.2028 -30.9539 8.46992 0.728771 4.24329 5.80608 1.10868 0.333346 -7.44057 0.949899 1.6607 
-113.53 94.8358 -141.242 -87.7335 50.8711 -92.2122 -177.607 28.8133 88.977 -19.5734 5.25426 -1.53568 58.6708 -1.03535 0.50231 34.7132 6.32865 5.84924 174.763 -4.03109 90.2804 -35.9588 -12.1839 -6.68855 66.4591 -2.62502 -1.54375 51.5052 -2.43892 -6.15242 1.167 7.39706 -89.8057 12.0882 2.41168 0.115846 0.419574 2.41446 0.00951506 -22.1326 2.2653 0.835678 -2.12001 2.2653 0.835673 91.3381 -36.5201 -101.683 24.3931 -12.8982 -8.48934 -13.8492 -10.8543 -52.7763 -8.82809 -0.560756 1.52917 -96.2099 -50.0292 70.0513 -25.6315 3.58261 17.7963 5.7401 15.0435 -31.9131 8.64706 0.735857 4.18436 5.33485 1.01322 2.30534 -5.41172 0.514941 1.63244 
-104.39 95.6757 -133.446 -88.957 49.6678 -89.9258 -177.751 26.1801 90.7895 -9.90578 3.09745 -1.46349 59.2706 0.919724 1.14166 41.0328 13.7522 10.6431 174.149 -0.578626 93.4876 -31.6707 -5.89557 -4.07038 74.0935 -6.1774 -3.2316 43.5141 -1.53499 -5.04445 1.0182 7.68598 -90.1192 11.5063 1.96999 -0.43829 -0.163264 1.94883 -0.524612 -22.7103 2.01061 0.174281 -2.69768 2.0106 0.174276 91.1164 -35.8366 -102.282 22.1534 -12.4584 -10.5594 -12.9205 -10.6399 -51.6322 -6.97182 -0.480376 1.96693 -96.9187 -50.8595 69.2829 -26.5256 3.44326 15.9792 7.50286 14.5703 -35.6539 9.83733 0.787862 3.81496 5.03141 1.55125 3.67519 -4.3074 0.80887 2.21277 
-97.5868 97.1072 -127.421 -89.2314 46.9533 -91.1207 -176.313 24.8942 88.6125 -24.4205 8.2021 -1.57522 58.9972 0.0991901 1.22139 39.1606 12.2361 11.1987 174.291 4.21572 94.0252 -30.1225 -1.4761 -3.41868 74.2851 -5.21979 -2.81957 35.5727 -0.891536 -4.31835 0.672752 7.6886 -89.9575 11.4977 1.3583 -0.0541129 -0.172525 1.35463 -0.11386 -22.7131 1.31177 0.356691 -2.70047 1.31175 0.356685 90.8818 -37.7546 -102.14 22.9864 -12.706 -5.45807 -14.6294 -12.0044 -50.5565 -6.32623 -0.43031 1.34059 -97.3843 -50.5344 68.5055 -25.3239 5.002 13.4366 7.75237 13.7069 -37.532 12.9433 0.882235 2.85525 4.64824 1.4057 2.84958 -4.02337 0.834611 2.03571 
-92.6081 98.5896 -122.091 -89.3991 45.2215 -91.5626 -173.93 17.1515 88.8797 -36.9168 8.79451 -1.50832 59.7265 0.586189 1.96099 37.7628 11.5411 12.7269 173.913 7.57416 93.1352 -27.1763 -1.55812 -2.55134 70.2372 -3.11063 -1.84584 32.0898 -0.55749 -3.39714 0.440536 7.46552 -89.9361 11.943 0.906105 0.0299736 0.272325 0.906529 -0.00994431 -22.2651 0.855199 0.300924 -2.2525 0.855191 0.300921 91.1929 -38.2796 -101.439 26.7104 -13.8496 3.11749 -12.6332 -13.1574 -45.9104 -4.18197 -0.323779 1.77258 -96.9425 -49.8872 68.9358 -24.1409 5.52391 10.6032 7.8806 12.4764 -39.0069 12.7675 0.980402 3.67517 3.99039 1.75146 2.57808 -5.62051 1.19252 2.66881 
-87.5215 98.1472 -116.585 -89.3253 43.3939 -90.4616 -171.74 7.82804 93.2209 -43.2821 13.0222 -0.62144 57.7027 -0.61036 2.47818 39.3404 13.3672 13.3994 174.533 12.6985 94.3061 -28.042 0.810578 -1.79186 69.6036 -2.8517 -1.69834 28.9871 -0.316813 -2.59736 -0.0200886 7.28254 -90.0806 12.3106 -0.0780654 -0.151838 0.639597 -0.0846751 -0.148258 -21.8954 -0.0288227 -0.16828 -1.8827 -0.0288421 -0.168285 91.3575 -38.5302 -101.082 29.4577 -13.7653 10.0885 -10.8167 -14.2377 -41.9844 -1.87175 -0.202976 2.88256 -96.3486 -49.1097 69.5553 -22.2994 6.78846 8.7339 8.44938 10.484 -43.0708 13.4396 0.963149 3.20799 4.7846 2.89115 2.21717 -7.4156 2.29629 3.18846 
